<svg version="1.2" xmlns="http://www.w3.org/2000/svg" viewBox="0 0 80 100" width="80" height="100">
	<style>
		.s0 { fill: #00ab54 } 
		.s1 { opacity: .5;fill: #ffffff } 
		.s2 { fill: #ffffff } 
	</style>
	<path id="&lt;Path&gt;" class="s0" d="m56.2 94.87h-41.44c-7.93 0-14.36-6.43-14.36-14.36v-65.66c0-7.93 6.43-14.36 14.36-14.36h36l19.8 19.9v60.12c0 7.93-6.43 14.36-14.36 14.36z"/>
	<path id="&lt;Path&gt;" class="s1" d="m70.56 20.39h-15.73c-2.23 0-4.04-1.8-4.04-4.03l-0.03-15.87"/>
	<g id="&lt;Group&gt;">
		<path id="&lt;Path&gt;" class="s2" d="m14.15 71.94l10.35-15.35 9.08 9.54 11.12-20.25 13.42 26.06z"/>
		<path id="&lt;Path&gt;" class="s2" d="m23.35 45.24c0 1.77-1.43 3.2-3.19 3.2-1.77 0-3.2-1.43-3.2-3.2 0-1.76 1.43-3.19 3.2-3.19 1.76 0 3.19 1.43 3.19 3.19z"/>
	</g>
</svg>