<svg version="1.2" xmlns="http://www.w3.org/2000/svg" viewBox="0 0 80 100" width="80" height="100">
	<style>
		.s0 { fill: #9954a1 } 
		.s1 { fill: #ffffff } 
		.s2 { opacity: .5;fill: #ffffff } 
	</style>
	<path id="&lt;Path&gt;" class="s0" d="m56.54 95.79h-41.84c-8.01 0-14.51-6.49-14.51-14.5v-66.3c0-8.01 6.5-14.5 14.51-14.5h36.35l20 20.09v60.71c0 8.01-6.5 14.5-14.51 14.5z"/>
	<path id="&lt;Path&gt;" class="s1" d="m50.66 35.42c-0.25-0.22-0.58-0.32-0.9-0.27l-20.49 2.69c-0.56 0.07-0.99 0.56-0.99 1.13v4.04 1.65 16.43c-1.33-1.16-3.13-1.88-5.12-1.88-4.08 0-7.4 3.01-7.4 6.7 0 3.7 3.32 6.71 7.4 6.71 4.08 0 7.4-3.01 7.4-6.71v-20.25l18.21-2.4v11.84c-1.29-1.1-3.02-1.78-4.93-1.78-3.97 0-7.2 2.93-7.2 6.53 0 3.6 3.23 6.53 7.2 6.53 3.98 0 7.21-2.93 7.21-6.53v-17.89-1.64-4.05c0-0.32-0.15-0.64-0.39-0.85z"/>
	<path id="&lt;Path&gt;" class="s2" d="m71.43 20.87h-15.89c-2.25 0-4.08-1.83-4.08-4.08l-0.04-16.02"/>
	<g id="&lt;Group&gt;">
	</g>
	<g id="&lt;Group&gt;">
	</g>
	<g id="&lt;Group&gt;">
	</g>
</svg>