<svg version="1.2" xmlns="http://www.w3.org/2000/svg" viewBox="0 0 80 100" width="80" height="100">
	<style>
		.s0 { fill: #809bbe } 
		.s1 { opacity: .5;fill: #ffffff } 
		.s2 { fill: #ffffff } 
	</style>
	<path id="&lt;Path&gt;" class="s0" d="m57.06 95.51h-41.84c-8.01 0-14.51-6.49-14.51-14.5v-66.3c0-8.01 6.5-14.5 14.51-14.5h36.34l20 20.09v60.71c0 8.01-6.49 14.5-14.5 14.5z"/>
	<path id="&lt;Path&gt;" class="s1" d="m71.56 20.3h-15.88c-2.25 0-4.08-1.82-4.08-4.07l-0.04-16.02"/>
	<path id="&lt;Path&gt;" class="s2" d="m51.35 61.24c0 1.77-1.43 3.2-3.19 3.2-1.77 0-3.2-1.43-3.2-3.2 0-1.76 1.43-3.19 3.2-3.19 1.76 0 3.19 1.43 3.19 3.19z"/>
	<path id="&lt;Path&gt; copy" class="s2" d="m38.35 61.24c0 1.77-1.43 3.2-3.19 3.2-1.77 0-3.2-1.43-3.2-3.2 0-1.76 1.43-3.19 3.2-3.19 1.76 0 3.19 1.43 3.19 3.19z"/>
	<path id="&lt;Path&gt; copy 2" class="s2" d="m25.35 61.24c0 1.77-1.43 3.2-3.19 3.2-1.77 0-3.2-1.43-3.2-3.2 0-1.76 1.43-3.19 3.2-3.19 1.76 0 3.19 1.43 3.19 3.19z"/>
</svg>