<svg version="1.2" xmlns="http://www.w3.org/2000/svg" viewBox="0 0 80 100" width="80" height="100">
	<style>
		.s0 { fill: #ee3e2c } 
		.s1 { opacity: .5;fill: #ffffff } 
		.s2 { fill: #ffffff } 
	</style>
	<path id="&lt;Path&gt;" class="s0" d="m56.92 95.51h-41.84c-8.01 0-14.51-6.49-14.51-14.5v-66.3c0-8.01 6.5-14.5 14.51-14.5h36.34l20.01 20.09v60.71c0 8.01-6.5 14.5-14.51 14.5z"/>
	<path id="&lt;Path&gt;" class="s1" d="m71.43 20.3h-15.89c-2.25 0-4.08-1.82-4.08-4.07l-0.04-16.02"/>
	<path id="&lt;Path&gt;" class="s2" d="m35.51 51.32h18.58c0 10.19-8.39 18.58-18.58 18.58-10.19 0-18.58-8.39-18.58-18.58 0-10.19 8.39-18.58 18.58-18.58z"/>
	<path id="&lt;Path&gt;" class="s2" d="m38.49 48.4v-18.58c4.93 0 9.65 1.96 13.14 5.44 3.48 3.49 5.44 8.21 5.44 13.14z"/>
	<g id="&lt;Group&gt;">
	</g>
</svg>